<?xml version="1.0" encoding="utf-8"?>
<!-- Generator: Adobe Illustrator 16.0.0, SVG Export Plug-In . SVG Version: 6.00 Build 0)  -->
<!DOCTYPE svg PUBLIC "-//W3C//DTD SVG 1.1//EN" "http://www.w3.org/Graphics/SVG/1.1/DTD/svg11.dtd">
<svg version="1.1" id="Layer_1" xmlns="http://www.w3.org/2000/svg" xmlns:xlink="http://www.w3.org/1999/xlink" x="0px" y="0px"
	 width="45.859px" height="40px" viewBox="0 0 45.859 40" enable-background="new 0 0 45.859 40" xml:space="preserve">
<g>
	<path opacity="0.8" fill="#FFFFFF" d="M25.62,39.715l0.072,0.072C1.971,37.187,0.75,14.844,0.75,14.844S22.489,15.764,25.62,39.715
		z"/>
	<path fill="#FFFFFF" d="M45.859,15.231c0,0-0.859,17.888-18.601,23.646c-0.626-3.8-1.632-7.182-3.054-9.854
		C31.146,16.027,45.859,15.231,45.859,15.231z"/>
	<path opacity="0.5" fill="#FFFFFF" d="M23.531,27.154c0,0-3.354-5.218-6.063-7.521c-0.41-0.58,0.445,0.511,0,0
		C17.503,9.222,24.25,0.381,24.25,0.381s6.51,8.135,6.68,18.423C28.415,20.727,25.322,23.319,23.531,27.154"/>
</g>
</svg>
