<?xml version="1.0" encoding="utf-8"?>
<!-- Generator: Adobe Illustrator 16.0.0, SVG Export Plug-In . SVG Version: 6.00 Build 0)  -->
<!DOCTYPE svg PUBLIC "-//W3C//DTD SVG 1.1//EN" "http://www.w3.org/Graphics/SVG/1.1/DTD/svg11.dtd">
<svg version="1.1" id="Layer_1" xmlns="http://www.w3.org/2000/svg" xmlns:xlink="http://www.w3.org/1999/xlink" x="0px" y="0px"
	 width="275.646px" height="250px" viewBox="0 0 275.646 250" enable-background="new 0 0 275.646 250" xml:space="preserve">
<g>
	<path opacity="0.5" fill="#000202" d="M53.715,20.198c0,0,12.225-20.198,34.052-20.198c21.826,0,100.395,0,100.395,0
		s22.02,0.727,30.246,15.076c8.227,14.348,52.199,90.971,52.199,90.971s10.209,19.473,1.566,34.544s-52.271,91.269-52.271,91.269
		S207.282,250,188.794,250c-18.49,0-103.014,0-103.014,0s-19.489,0.242-29.797-17.735c-10.308-17.978-53.129-92.717-53.129-92.717
		s-7.366-16.81,1.569-32.396C13.359,91.566,53.715,20.198,53.715,20.198z"/>
	<g>
		<path fill-rule="evenodd" clip-rule="evenodd" fill="#FFFFFF" d="M224.156,117.915c0-3.568,0.007-7.137-0.003-10.705
			c-0.006-1.81,0.51-2.114-1.298-2.18c-0.718-0.026-1.436-0.004-2.358-0.004c0-1.868-0.03-3.615,0.039-5.357
			c0.009-0.199,0.571-0.533,0.88-0.536c2.308-0.023,3.804-0.059,6.104,0.066c2.19,0.12,3.24,1.229,3.477,3.41
			c0.083,0.763,0.113,1.534,0.113,2.301c0.007,12.039,0.004,24.077,0.007,36.116c0,0.497,0.005,0.996,0.048,1.491
			c0.081,0.9-0.244,1.384,0.685,1.382c0.944-0.004,1.889-0.001,2.927-0.001c0,2.022,0,3.896,0,6.165
			c-2.92-0.18-5.025-0.21-7.9-0.597c-1.516-0.204-2.288-1.501-2.273-3.109c0.005-0.62,0-1.239-0.113-1.927
			c-1.53,2.233-3.465,3.898-5.88,5.064c-6.286,3.032-15.132,0.619-18.64-5.424c-4.656-8.02-4.797-16.282-0.141-24.329
			c4.398-7.6,15.463-9.456,22.25-4.002c0.805,0.647,1.685,1.203,2.529,1.801C224.458,117.665,224.307,117.791,224.156,117.915z
			 M203.687,131.918c-0.055,2.919,0.566,5.774,2.229,8.386c3.705,5.827,12.41,6.065,16.078,0.201
			c3.468-5.541,3.461-11.521,0.229-17.106c-3.837-6.634-12.788-6.311-16.651,0.332C204.116,126.234,203.616,128.941,203.687,131.918
			z"/>
		<path fill-rule="evenodd" clip-rule="evenodd" fill="#FFFFFF" d="M84.087,143.915c0,2.052,1.087,3.896,1.087,5.94
			c-2.736-0.004-15.325,0.576-17.889-0.511c-1.233-0.522-2.279-1.901-3-3.133c-2.119-3.622-4.098-7.332-5.995-11.076
			c-0.826-1.631-1.992-2.357-3.745-2.333c-0.945,0.015-1.891,0.004-2.977,0.004c0,5.672,0,11.262,0,17.08
			c-2.242,0-4.349,0.017-6.454-0.027c-0.189-0.004-0.48-0.377-0.532-0.619c-0.092-0.434-0.043-0.9-0.043-1.352
			c-0.001-13.217,0-26.434-0.001-39.65c0-3.12,0.75-3.182-2.37-3.218c-0.401-0.005-0.804-0.038-1.3-0.062c0-1.935,0-3.805,0-5.692
			c2.98,0,5.095-0.12,8.008,0.054c1.322,0.078,2.278,1.058,2.437,2.525c0.083,0.763,0.177,1.529,0.178,2.294
			c0.013,6.971,0.008,13.941,0.008,20.911c0,0.539,0,1.077,0,1.584c3.695,0.981,5.908,0.226,8-2.702
			c2.285-3.199,4.546-6.414,6.835-9.61c0.222-0.311,0.561-0.756,0.854-0.764c2.42-0.062,4.842-0.035,7.667-0.035
			c-4.198,5.689-8.172,11.075-12.054,16.336c0.893,1.394,1.965,2.936,2.9,4.557c1.375,2.385,2.729,4.788,3.945,7.256
			c0.802,1.625,1.895,2.451,3.73,2.252C74.001,143.857,83.321,143.915,84.087,143.915z"/>
		<path fill-rule="evenodd" clip-rule="evenodd" fill="#FFFFFF" d="M183.854,143.908c-0.383,0.585-0.737,1.191-1.153,1.752
			c-3.711,4.992-10.461,6.432-16.311,3.751c-6.144-2.817-7.626-9.749-5.016-14.751c1.516-2.906,4.217-4.385,7.143-5.492
			c4.347-1.646,8.912-1.869,13.482-1.889c1.387-0.006,1.771-0.465,1.525-1.733c-0.11-0.574-0.078-1.176-0.184-1.751
			c-0.829-4.525-3.662-6.024-9.391-5.558c-0.578,0.047-1.154,0.212-1.717,0.372c-2.188,0.624-2.575,1.135-2.676,3.416
			c-0.012,0.265-0.066,0.527-0.123,0.958c-1.914,0-3.805,0.013-5.693-0.02c-0.203-0.002-0.506-0.225-0.586-0.418
			c-0.976-2.377,0.32-6.165,2.547-7.604c2.193-1.417,4.673-1.92,7.196-2.13c3.347-0.276,6.716-0.267,9.93,0.885
			c4.811,1.724,7.189,5.449,7.468,10.321c0.323,5.643,0.188,11.311,0.254,16.969c0.006,0.543-0.135,1.182,0.102,1.603
			c0.301,0.532,0.859,1.133,1.41,1.263c0.89,0.208,1.863,0.056,2.887,0.056c0,2.052,0,3.928,0,5.804
			c-2.667,0-5.293,0.201-7.871-0.062c-2.085-0.214-2.927-1.557-2.983-3.715c-0.017-0.654-0.003-1.31-0.003-1.964
			C184.013,143.949,183.933,143.93,183.854,143.908z M183.495,132.152c-2.754,0.188-5.477,0.177-8.123,0.619
			c-1.997,0.334-4.083,0.938-5.8,1.971c-3.265,1.963-3.265,6.628-0.253,8.976c1.94,1.515,4.174,1.714,6.424,1.202
			C180.636,143.808,184.315,137.842,183.495,132.152z"/>
		<path fill-rule="evenodd" clip-rule="evenodd" fill="#FFFFFF" d="M119.839,143.918c0,1.893,0.044,3.562-0.044,5.223
			c-0.015,0.271-0.611,0.721-0.95,0.73c-2.08,0.061-4.167,0.09-6.246-0.007c-2.878-0.132-4.181-1.481-4.204-4.386
			c-0.047-5.842-0.004-11.683-0.036-17.522c-0.007-1.217-0.098-2.446-0.285-3.647c-0.532-3.426-2.647-5.231-6.124-5.283
			c-7.093-0.106-11.962,5.029-12.34,11.643c-0.337,5.913-0.154,11.856-0.138,17.788c0.003,1.089-0.238,1.556-1.417,1.473
			c-1.396-0.098-2.809-0.084-4.208-0.003c-1.082,0.062-1.387-0.331-1.382-1.392c0.036-8.557,0.02-17.115,0.019-25.672
			c0-0.498-0.014-0.997-0.005-1.494c0.022-1.273-0.553-1.955-1.871-1.937c-0.809,0.012-1.617,0.002-2.637,0.002
			c0-1.87-0.029-3.615,0.04-5.357c0.008-0.203,0.552-0.548,0.852-0.552c2.218-0.025,4.439-0.05,6.652,0.06
			c2.284,0.114,3.54,1.417,3.694,3.71c0.071,1.057,0.012,2.122,0.012,3.505c0.542-0.845,0.884-1.459,1.301-2.016
			c3.882-5.179,9.189-6.762,15.359-5.891c6.311,0.891,9.021,5.33,9.275,11.348c0.232,5.514,0.092,11.045,0.11,16.568
			c0.009,2.914,0.177,3.094,3.019,3.107C118.731,143.92,119.177,143.918,119.839,143.918z"/>
		<path fill-rule="evenodd" clip-rule="evenodd" fill="#FFFFFF" d="M127.778,132.508c0.3,4.607,1.918,8.359,5.952,10.469
			c9.406,4.918,25.55-7.991,30.973-11.932c0.948,1.568-5.287,8.828-4.296,10.465c-2.575,2.557-12.356,7.872-15.756,8.639
			c-6.589,1.486-12.695,0.33-17.886-4.174c-4.159-3.608-6.039-8.355-6.152-13.802c-0.106-5.087,1.147-9.737,4.612-13.642
			c3.739-4.214,8.488-5.885,14.018-5.834c8.32,0.077,13.857,5.731,14.887,13.764c0.199,1.558,0.145,3.147,0.199,4.724
			c0.041,1.154-0.598,1.352-1.632,1.346c-7.196-0.041-14.392-0.021-21.588-0.021C130.073,132.508,129.036,132.508,127.778,132.508z
			 M147.103,127.375c0.348-5.013-3.471-9.239-8.365-9.227c-6.274,0.015-10.286,4.62-10.461,9.227
			C134.555,127.375,140.831,127.375,147.103,127.375z"/>
	</g>
	<g>
		<path opacity="0.8" fill="#FFFFFF" d="M160.917,98.76l0.108,0.107c-35.434-3.885-37.258-37.258-37.258-37.258
			S156.239,62.983,160.917,98.76z"/>
		<path fill="#FFFFFF" d="M191.148,62.188c0,0-1.284,26.721-27.784,35.32c-0.935-5.677-2.438-10.727-4.562-14.72
			C169.172,63.377,191.148,62.188,191.148,62.188z"/>
		<path opacity="0.5" fill="#FFFFFF" d="M157.796,79.997c0,0-5.009-7.794-9.056-11.234c-0.612-0.866,0.664,0.764,0,0
			c0.052-15.552,10.13-28.757,10.13-28.757s9.724,12.152,9.979,27.518C165.092,70.396,160.472,74.27,157.796,79.997"/>
	</g>
</g>
</svg>
