<?xml version="1.0" encoding="utf-8"?>
<!-- Generator: Adobe Illustrator 16.0.0, SVG Export Plug-In . SVG Version: 6.00 Build 0)  -->
<!DOCTYPE svg PUBLIC "-//W3C//DTD SVG 1.1//EN" "http://www.w3.org/Graphics/SVG/1.1/DTD/svg11.dtd">
<svg version="1.1" id="Layer_1" xmlns="http://www.w3.org/2000/svg" xmlns:xlink="http://www.w3.org/1999/xlink" x="0px" y="0px"
	 width="143.485px" height="40px" viewBox="0 0 143.485 40" enable-background="new 0 0 143.485 40" xml:space="preserve">
<g>
	<path fill-rule="evenodd" clip-rule="evenodd" fill="#FFFFFF" d="M135.626,14.604c0-2.64,0.006-5.281-0.002-7.921
		c-0.004-1.339,0.377-1.564-0.96-1.613c-0.531-0.02-1.063-0.003-1.746-0.003c0-1.383-0.021-2.675,0.03-3.965
		c0.005-0.146,0.422-0.394,0.65-0.396c1.707-0.017,2.814-0.043,4.518,0.05c1.62,0.089,2.397,0.909,2.572,2.523
		c0.062,0.564,0.083,1.135,0.083,1.703c0.006,8.909,0.004,17.816,0.006,26.724c0,0.369,0.002,0.737,0.035,1.104
		c0.06,0.666-0.182,1.023,0.506,1.021c0.699-0.002,1.397,0,2.167,0c0,1.496,0,2.884,0,4.561c-2.161-0.132-3.72-0.154-5.847-0.44
		c-1.122-0.15-1.692-1.111-1.683-2.301c0.004-0.459,0.001-0.918-0.083-1.426c-1.133,1.652-2.563,2.884-4.353,3.747
		c-4.649,2.244-11.196,0.458-13.792-4.013c-3.445-5.935-3.55-12.048-0.104-18.003c3.255-5.624,11.443-6.996,16.464-2.96
		c0.597,0.479,1.247,0.89,1.873,1.332C135.849,14.42,135.737,14.512,135.626,14.604z M120.479,24.966
		c-0.04,2.16,0.42,4.273,1.648,6.206c2.742,4.311,9.184,4.488,11.898,0.148c2.565-4.1,2.561-8.524,0.17-12.658
		c-2.839-4.909-9.463-4.67-12.32,0.246C120.797,20.761,120.426,22.765,120.479,24.966z"/>
	<path fill-rule="evenodd" clip-rule="evenodd" fill="#FFFFFF" d="M31.979,33.844c0,1.519,0.804,2.884,0.804,4.396
		c-2.024-0.004-11.339,0.426-13.237-0.378c-0.912-0.388-1.687-1.408-2.219-2.319c-1.568-2.681-3.032-5.425-4.436-8.195
		c-0.611-1.207-1.475-1.745-2.771-1.727c-0.699,0.011-1.398,0.002-2.202,0.002c0,4.197,0,8.333,0,12.64
		c-1.659,0-3.218,0.013-4.775-0.021c-0.14-0.003-0.355-0.278-0.394-0.458c-0.068-0.321-0.032-0.665-0.032-1.001
		C2.715,27.004,2.716,17.224,2.715,7.445c0-2.309,0.555-2.354-1.753-2.381C0.665,5.06,0.367,5.035,0,5.018c0-1.432,0-2.815,0-4.211
		c2.205,0,3.771-0.088,5.926,0.039c0.978,0.059,1.686,0.783,1.803,1.869C7.79,3.278,7.86,3.846,7.861,4.413
		c0.01,5.157,0.006,10.315,0.006,15.473c0,0.399,0,0.797,0,1.172c2.735,0.726,4.372,0.166,5.919-1.999
		c1.691-2.368,3.364-4.747,5.058-7.112c0.165-0.23,0.415-0.559,0.633-0.565c1.791-0.046,3.583-0.026,5.674-0.026
		c-3.106,4.21-6.047,8.195-8.92,12.088c0.661,1.032,1.454,2.172,2.146,3.372c1.018,1.766,2.02,3.543,2.92,5.369
		c0.593,1.202,1.401,1.814,2.76,1.666C24.516,33.801,31.412,33.844,31.979,33.844z"/>
	<path fill-rule="evenodd" clip-rule="evenodd" fill="#FFFFFF" d="M105.804,33.839c-0.284,0.433-0.546,0.882-0.854,1.297
		c-2.746,3.693-7.741,4.759-12.069,2.774c-4.545-2.084-5.642-7.213-3.712-10.916c1.123-2.149,3.121-3.242,5.286-4.062
		c3.217-1.218,6.595-1.383,9.978-1.398c1.025-0.004,1.31-0.343,1.129-1.282c-0.082-0.425-0.059-0.87-0.137-1.296
		c-0.613-3.348-2.71-4.457-6.948-4.112c-0.429,0.035-0.854,0.157-1.271,0.276c-1.619,0.461-1.906,0.839-1.98,2.527
		c-0.009,0.195-0.049,0.39-0.091,0.708c-1.417,0-2.815,0.01-4.213-0.014c-0.149-0.003-0.374-0.167-0.434-0.31
		c-0.722-1.759,0.236-4.562,1.885-5.626c1.622-1.049,3.457-1.421,5.324-1.576c2.477-0.206,4.97-0.197,7.348,0.654
		c3.561,1.276,5.32,4.032,5.526,7.638c0.239,4.175,0.138,8.37,0.188,12.556c0.004,0.401-0.101,0.874,0.075,1.186
		c0.222,0.395,0.636,0.839,1.043,0.935c0.658,0.154,1.38,0.041,2.135,0.041c0,1.519,0,2.906,0,4.295
		c-1.973,0-3.915,0.149-5.823-0.047c-1.542-0.157-2.166-1.15-2.207-2.749c-0.014-0.484-0.002-0.969-0.002-1.452
		C105.92,33.868,105.862,33.854,105.804,33.839z M105.538,25.14c-2.038,0.139-4.052,0.131-6.01,0.458
		c-1.479,0.247-3.022,0.693-4.293,1.459c-2.415,1.452-2.415,4.904-0.188,6.642c1.437,1.12,3.09,1.268,4.754,0.89
		C103.422,33.765,106.145,29.35,105.538,25.14z"/>
	<path fill-rule="evenodd" clip-rule="evenodd" fill="#FFFFFF" d="M58.434,33.846c0,1.4,0.033,2.636-0.032,3.865
		c-0.011,0.2-0.453,0.532-0.703,0.54c-1.54,0.045-3.084,0.066-4.622-0.005c-2.13-0.099-3.094-1.097-3.111-3.246
		c-0.035-4.321-0.003-8.644-0.027-12.965c-0.005-0.901-0.072-1.81-0.21-2.699c-0.394-2.535-1.959-3.871-4.531-3.909
		c-5.249-0.079-8.852,3.721-9.131,8.615c-0.25,4.376-0.115,8.774-0.102,13.162c0.002,0.807-0.176,1.152-1.047,1.091
		c-1.034-0.072-2.079-0.062-3.114-0.002c-0.8,0.045-1.027-0.246-1.023-1.03c0.027-6.333,0.015-12.664,0.014-18.997
		c0-0.369-0.01-0.737-0.004-1.106c0.017-0.942-0.409-1.446-1.384-1.432c-0.598,0.008-1.197,0.001-1.951,0.001
		c0-1.383-0.022-2.675,0.029-3.964c0.006-0.151,0.409-0.406,0.63-0.409c1.641-0.019,3.285-0.037,4.922,0.044
		c1.69,0.084,2.619,1.048,2.733,2.745c0.053,0.782,0.009,1.57,0.009,2.594c0.401-0.625,0.654-1.08,0.963-1.491
		c2.873-3.833,6.8-5.004,11.365-4.359c4.67,0.659,6.675,3.944,6.863,8.397c0.173,4.081,0.068,8.172,0.082,12.26
		c0.007,2.156,0.131,2.289,2.233,2.299C57.615,33.847,57.944,33.846,58.434,33.846z"/>
	<path fill-rule="evenodd" clip-rule="evenodd" fill="#FFFFFF" d="M64.31,25.403c0.223,3.409,1.419,6.186,4.403,7.746
		c6.96,3.64,18.906-5.913,22.918-8.829c0.702,1.16-3.911,6.533-3.18,7.744c-1.904,1.891-9.142,5.824-11.658,6.393
		c-4.875,1.1-9.393,0.243-13.234-3.09c-3.078-2.669-4.468-6.182-4.552-10.212c-0.079-3.765,0.85-7.205,3.413-10.094
		c2.767-3.119,6.281-4.355,10.373-4.318c6.156,0.057,10.254,4.241,11.015,10.185c0.147,1.152,0.107,2.329,0.148,3.495
		c0.03,0.854-0.443,1-1.208,0.996c-5.325-0.03-10.649-0.016-15.974-0.016C66.007,25.403,65.24,25.403,64.31,25.403z M78.609,21.604
		c0.257-3.709-2.569-6.836-6.19-6.828c-4.643,0.011-7.612,3.419-7.741,6.828C69.324,21.604,73.968,21.604,78.609,21.604z"/>
</g>
</svg>
